<svg width="70" height="70" viewBox="0 0 70 70" fill="none" xmlns="http://www.w3.org/2000/svg">
<g id="mdi:clock-fast">
<path id="Vector" d="M43.75 11.667C49.9384 11.667 55.8733 14.1253 60.2492 18.5012C64.625 22.877 67.0834 28.8119 67.0834 35.0003C67.0834 41.1887 64.625 47.1236 60.2492 51.4995C55.8733 55.8753 49.9384 58.3337 43.75 58.3337C37.5616 58.3337 31.6267 55.8753 27.2509 51.4995C22.875 47.1236 20.4167 41.1887 20.4167 35.0003C20.4167 28.8119 22.875 22.877 27.2509 18.5012C31.6267 14.1253 37.5616 11.667 43.75 11.667ZM43.75 17.5003C39.1087 17.5003 34.6575 19.3441 31.3757 22.626C28.0938 25.9078 26.25 30.359 26.25 35.0003C26.25 39.6416 28.0938 44.0928 31.3757 47.3747C34.6575 50.6566 39.1087 52.5003 43.75 52.5003C48.3913 52.5003 52.8425 50.6566 56.1244 47.3747C59.4063 44.0928 61.25 39.6416 61.25 35.0003C61.25 30.359 59.4063 25.9078 56.1244 22.626C52.8425 19.3441 48.3913 17.5003 43.75 17.5003ZM40.8334 23.3337H45.2084V34.3587L52.0042 41.1545L48.9125 44.2462L40.8334 36.167V23.3337ZM5.83335 52.5003C5.05981 52.5003 4.31794 52.193 3.77096 51.6461C3.22398 51.0991 2.91669 50.3572 2.91669 49.5837C2.91669 48.8101 3.22398 48.0682 3.77096 47.5213C4.31794 46.9743 5.05981 46.667 5.83335 46.667H17.0042C17.9084 48.7378 19.075 50.692 20.4167 52.5003H5.83335ZM8.75002 37.917C7.97647 37.917 7.23461 37.6097 6.68763 37.0627C6.14064 36.5157 5.83335 35.7739 5.83335 35.0003C5.83335 34.2268 6.14064 33.4849 6.68763 32.9379C7.23461 32.3909 7.97647 32.0837 8.75002 32.0837H14.7292L14.5834 35.0003L14.7292 37.917H8.75002ZM11.6667 23.3337C10.8931 23.3337 10.1513 23.0264 9.60429 22.4794C9.05731 21.9324 8.75002 21.1905 8.75002 20.417C8.75002 19.6434 9.05731 18.9016 9.60429 18.3546C10.1513 17.8076 10.8931 17.5003 11.6667 17.5003H20.4167C19.075 19.3087 17.9084 21.2628 17.0042 23.3337H11.6667Z" fill="#2C3838"/>
</g>
</svg>
