<svg width="32" height="32" viewBox="0 0 32 32" fill="none" xmlns="http://www.w3.org/2000/svg">
<path d="M13.6573 21.7525L8 16.0939L9.88533 14.2085L13.6573 17.9792L21.1987 10.4365L23.0853 12.3232L13.6573 21.7525Z" fill="#E4E9DE"/>
<path fill-rule="evenodd" clip-rule="evenodd" d="M1.33331 6.66732C1.33331 5.25283 1.89522 3.89628 2.89541 2.89608C3.8956 1.89589 5.25216 1.33398 6.66665 1.33398H25.3333C26.7478 1.33398 28.1044 1.89589 29.1045 2.89608C30.1047 3.89628 30.6666 5.25283 30.6666 6.66732V25.334C30.6666 26.7485 30.1047 28.105 29.1045 29.1052C28.1044 30.1054 26.7478 30.6673 25.3333 30.6673H6.66665C5.25216 30.6673 3.8956 30.1054 2.89541 29.1052C1.89522 28.105 1.33331 26.7485 1.33331 25.334V6.66732ZM6.66665 4.00065H25.3333C26.0406 4.00065 26.7188 4.2816 27.2189 4.7817C27.719 5.2818 28 5.96007 28 6.66732V25.334C28 26.0412 27.719 26.7195 27.2189 27.2196C26.7188 27.7197 26.0406 28.0007 25.3333 28.0007H6.66665C5.9594 28.0007 5.28113 27.7197 4.78103 27.2196C4.28093 26.7195 3.99998 26.0412 3.99998 25.334V6.66732C3.99998 5.96007 4.28093 5.2818 4.78103 4.7817C5.28113 4.2816 5.9594 4.00065 6.66665 4.00065Z" fill="#E4E9DE"/>
</svg>
