<svg width="20" height="20" viewBox="0 0 20 20" fill="none" xmlns="http://www.w3.org/2000/svg">
<path d="M4.85339 3.02699L10.0001 8.17366L15.1201 3.05366C15.2331 2.93328 15.3694 2.83699 15.5206 2.77054C15.6718 2.7041 15.8349 2.66888 16.0001 2.66699C16.3537 2.66699 16.6928 2.80747 16.9429 3.05752C17.1929 3.30756 17.3334 3.6467 17.3334 4.00033C17.3365 4.16379 17.3062 4.32618 17.2443 4.4775C17.1824 4.62883 17.0902 4.76591 16.9734 4.88033L11.7867 10.0003L16.9734 15.187C17.1931 15.402 17.322 15.6931 17.3334 16.0003C17.3334 16.3539 17.1929 16.6931 16.9429 16.9431C16.6928 17.1932 16.3537 17.3337 16.0001 17.3337C15.8301 17.3407 15.6606 17.3123 15.5022 17.2504C15.3438 17.1884 15.2001 17.0942 15.0801 16.9737L10.0001 11.827L4.86672 16.9603C4.75406 17.0767 4.61947 17.1696 4.47072 17.2337C4.32197 17.2977 4.16201 17.3317 4.00005 17.3337C3.64643 17.3337 3.30729 17.1932 3.05725 16.9431C2.8072 16.6931 2.66672 16.3539 2.66672 16.0003C2.66361 15.8369 2.69394 15.6745 2.75585 15.5232C2.81775 15.3718 2.90993 15.2347 3.02672 15.1203L8.21339 10.0003L3.02672 4.81366C2.80697 4.59867 2.67811 4.30754 2.66672 4.00033C2.66672 3.6467 2.8072 3.30756 3.05725 3.05752C3.30729 2.80747 3.64643 2.66699 4.00005 2.66699C4.32005 2.67099 4.62672 2.80033 4.85339 3.02699Z" fill="#4A5D5E"/>
</svg>
