<svg width="16" height="16" viewBox="0 0 16 16" fill="none" xmlns="http://www.w3.org/2000/svg">
<path d="M2.85339 1.02699L8.00005 6.17366L13.1201 1.05366C13.2331 0.933282 13.3694 0.836985 13.5206 0.770542C13.6718 0.704099 13.8349 0.668878 14.0001 0.666992C14.3537 0.666992 14.6928 0.807468 14.9429 1.05752C15.1929 1.30756 15.3334 1.6467 15.3334 2.00033C15.3365 2.16379 15.3062 2.32618 15.2443 2.4775C15.1824 2.62883 15.0902 2.76591 14.9734 2.88033L9.78672 8.00033L14.9734 13.187C15.1931 13.402 15.322 13.6931 15.3334 14.0003C15.3334 14.3539 15.1929 14.6931 14.9429 14.9431C14.6928 15.1932 14.3537 15.3337 14.0001 15.3337C13.8301 15.3407 13.6606 15.3123 13.5022 15.2504C13.3438 15.1884 13.2001 15.0942 13.0801 14.9737L8.00005 9.82699L2.86672 14.9603C2.75406 15.0767 2.61947 15.1696 2.47072 15.2337C2.32197 15.2977 2.16201 15.3317 2.00005 15.3337C1.64643 15.3337 1.30729 15.1932 1.05725 14.9431C0.807197 14.6931 0.666721 14.3539 0.666721 14.0003C0.663612 13.8369 0.693941 13.6745 0.755847 13.5232C0.817753 13.3718 0.90993 13.2347 1.02672 13.1203L6.21339 8.00033L1.02672 2.81366C0.806967 2.59867 0.678107 2.30754 0.666721 2.00033C0.666721 1.6467 0.807197 1.30756 1.05725 1.05752C1.30729 0.807468 1.64643 0.666992 2.00005 0.666992C2.32005 0.670992 2.62672 0.800325 2.85339 1.02699Z" fill="#E4E9DE"/>
</svg>
