<svg width="14" height="14" viewBox="0 0 14 14" fill="none" xmlns="http://www.w3.org/2000/svg">
<g clip-path="url(#clip0_121_130)">
<path d="M7.89004 2.51001C8.04782 2.35228 8.26178 2.26367 8.48489 2.26367C8.70799 2.26367 8.92195 2.35228 9.07973 2.51001L12.8659 6.29617C13.0236 6.45395 13.1122 6.66792 13.1122 6.89102C13.1122 7.11412 13.0236 7.32809 12.8659 7.48587L9.07973 11.272C8.92105 11.4253 8.70852 11.5101 8.48791 11.5082C8.26731 11.5063 8.05628 11.4178 7.90029 11.2618C7.74429 11.1058 7.6558 10.8948 7.65389 10.6742C7.65197 10.4535 7.73678 10.241 7.89004 10.0823L10.1676 7.73239H2.17462C1.95148 7.73239 1.73747 7.64374 1.57968 7.48596C1.4219 7.32817 1.33325 7.11416 1.33325 6.89102C1.33325 6.66787 1.4219 6.45387 1.57968 6.29608C1.73747 6.13829 1.95148 6.04965 2.17462 6.04965H10.1676L7.89004 3.69971C7.73231 3.54193 7.6437 3.32796 7.6437 3.10486C7.6437 2.88176 7.73231 2.66779 7.89004 2.51001Z" fill="#4A5D5E"/>
</g>
<defs>
<clipPath id="clip0_121_130">
<rect width="12.6205" height="12.6205" fill="white" transform="translate(0.912598 0.582031)"/>
</clipPath>
</defs>
</svg>
