<svg width="25" height="19" viewBox="0 0 25 19" fill="none" xmlns="http://www.w3.org/2000/svg">
<path d="M13.8217 0.820985C14.1342 0.508533 14.5581 0.333008 15 0.333008C15.4419 0.333008 15.8658 0.508533 16.1783 0.820985L23.6783 8.32099C23.9908 8.63353 24.1663 9.05738 24.1663 9.49932C24.1663 9.94126 23.9908 10.3651 23.6783 10.6777L16.1783 18.1777C15.864 18.4812 15.443 18.6492 15.006 18.6454C14.569 18.6416 14.151 18.4664 13.842 18.1573C13.533 17.8483 13.3577 17.4303 13.3539 16.9933C13.3501 16.5563 13.5181 16.1353 13.8217 15.821L18.3333 11.166H2.50001C2.05798 11.166 1.63406 10.9904 1.3215 10.6778C1.00894 10.3653 0.833344 9.94135 0.833344 9.49932C0.833344 9.05729 1.00894 8.63337 1.3215 8.32081C1.63406 8.00825 2.05798 7.83265 2.50001 7.83265H18.3333L13.8217 3.17765C13.5092 2.86511 13.3337 2.44126 13.3337 1.99932C13.3337 1.55738 13.5092 1.13353 13.8217 0.820985Z" fill="#4A5D5E"/>
</svg>
