<svg width="223" height="35" viewBox="0 0 223 35" fill="none" xmlns="http://www.w3.org/2000/svg">
<g clip-path="url(#clip0_125_345)">
<path d="M15.6308 1.70801C11.389 1.70801 10.8556 1.72755 9.18898 1.80179C7.52234 1.87995 6.38715 2.14176 5.39264 2.52863C4.34898 2.92003 3.40389 3.53564 2.62403 4.33204C1.82763 5.1119 1.21203 6.05698 0.820619 7.10065C0.433756 8.09321 0.169985 9.23035 0.093785 10.8911C0.0195386 12.5617 0 13.0931 0 17.3408C0 21.5846 0.0195386 22.116 0.093785 23.7827C0.171939 25.4473 0.433756 26.5825 0.820619 27.577C1.22116 28.6048 1.75456 29.4762 2.62403 30.3457C3.49154 31.2151 4.36296 31.7505 5.39069 32.1491C6.38715 32.5359 7.52039 32.7997 9.18507 32.8759C10.8537 32.9501 11.3851 32.9697 15.6308 32.9697C19.8766 32.9697 20.4061 32.9501 22.0747 32.8759C23.7374 32.7977 24.8765 32.5359 25.871 32.1491C26.914 31.7574 27.8584 31.1418 28.6377 30.3457C29.5071 29.4762 30.0405 28.6048 30.4411 27.577C30.826 26.5825 31.0897 25.4473 31.1679 23.7827C31.2421 22.116 31.2617 21.5846 31.2617 17.3388C31.2617 13.0931 31.2421 12.5617 31.1679 10.8931C31.0897 9.23035 30.826 8.09321 30.4411 7.10065C30.0497 6.05698 29.434 5.1119 28.6377 4.33204C27.8578 3.53564 26.9127 2.92003 25.869 2.52863C24.8726 2.14176 23.7354 1.87799 22.0727 1.80179C20.4041 1.72755 19.8746 1.70801 15.6269 1.70801H15.6308ZM14.2299 4.52547H15.6328C19.8062 4.52547 20.3006 4.53914 21.9477 4.61534C23.4717 4.68373 24.3001 4.93968 24.8511 5.15265C25.5799 5.43596 26.1015 5.77593 26.6486 6.32301C27.1957 6.87009 27.5337 7.38982 27.817 8.12056C28.032 8.66959 28.286 9.49803 28.3543 11.022C28.4305 12.6691 28.4462 13.1635 28.4462 17.3349C28.4462 21.5064 28.4305 22.0027 28.3543 23.6498C28.286 25.1738 28.03 26.0003 27.817 26.5513C27.5647 27.2291 27.1649 27.8424 26.6467 28.3469C26.0996 28.8939 25.5799 29.232 24.8491 29.5153C24.302 29.7302 23.4736 29.9842 21.9477 30.0545C20.3006 30.1288 19.8062 30.1464 15.6328 30.1464C11.4594 30.1464 10.9631 30.1288 9.31598 30.0545C7.79197 29.9842 6.96549 29.7302 6.41451 29.5153C5.73619 29.2637 5.12222 28.8646 4.61696 28.3469C4.09777 27.842 3.69733 27.228 3.44465 26.5493C3.23168 26.0003 2.97572 25.1719 2.90734 23.6478C2.83309 22.0007 2.81746 21.5064 2.81746 17.331C2.81746 13.1556 2.83309 12.6652 2.90734 11.0181C2.97768 9.49412 3.23168 8.66569 3.4466 8.1147C3.72991 7.38591 4.06988 6.86423 4.61696 6.31715C5.16404 5.77007 5.68376 5.43206 6.41451 5.14875C6.96549 4.93382 7.79197 4.67982 9.31598 4.60948C10.7579 4.54305 11.3167 4.52351 14.2299 4.52156V4.52547ZM23.9758 7.12019C23.7294 7.12019 23.4855 7.1687 23.258 7.26297C23.0304 7.35723 22.8236 7.49539 22.6494 7.66957C22.4753 7.84374 22.3371 8.05052 22.2428 8.27809C22.1486 8.50566 22.1001 8.74957 22.1001 8.99589C22.1001 9.24221 22.1486 9.48612 22.2428 9.71369C22.3371 9.94126 22.4753 10.148 22.6494 10.3222C22.8236 10.4964 23.0304 10.6345 23.258 10.7288C23.4855 10.8231 23.7294 10.8716 23.9758 10.8716C24.4732 10.8716 24.9503 10.674 25.3021 10.3222C25.6538 9.97045 25.8515 9.49335 25.8515 8.99589C25.8515 8.49842 25.6538 8.02133 25.3021 7.66957C24.9503 7.3178 24.4732 7.12019 23.9758 7.12019ZM15.6328 9.31241C14.5681 9.2958 13.5107 9.49116 12.5222 9.88712C11.5337 10.2831 10.6339 10.8717 9.87508 11.6188C9.11627 12.3658 8.51366 13.2564 8.10233 14.2386C7.69099 15.2208 7.47916 16.275 7.47916 17.3398C7.47916 18.4047 7.69099 19.4589 8.10233 20.4411C8.51366 21.4233 9.11627 22.3138 9.87508 23.0609C10.6339 23.8079 11.5337 24.3966 12.5222 24.7925C13.5107 25.1885 14.5681 25.3839 15.6328 25.3672C17.7401 25.3344 19.75 24.4742 21.2286 22.9723C22.7072 21.4704 23.5359 19.4474 23.5359 17.3398C23.5359 15.2323 22.7072 13.2092 21.2286 11.7073C19.75 10.2055 17.7401 9.34529 15.6328 9.31241ZM15.6328 12.1279C16.3171 12.1279 16.9947 12.2627 17.6269 12.5246C18.2592 12.7864 18.8336 13.1703 19.3175 13.6542C19.8014 14.138 20.1852 14.7125 20.4471 15.3447C20.7089 15.9769 20.8437 16.6545 20.8437 17.3388C20.8437 18.0232 20.7089 18.7008 20.4471 19.333C20.1852 19.9652 19.8014 20.5397 19.3175 21.0235C18.8336 21.5074 18.2592 21.8912 17.6269 22.1531C16.9947 22.415 16.3171 22.5498 15.6328 22.5498C14.2508 22.5498 12.9253 22.0008 11.9481 21.0235C10.9709 20.0463 10.4219 18.7209 10.4219 17.3388C10.4219 15.9568 10.9709 14.6314 11.9481 13.6542C12.9253 12.6769 14.2508 12.1279 15.6328 12.1279Z" fill="#E4E9DE"/>
</g>
<path d="M93.0975 17.3374C93.0975 9.66791 86.873 3.44336 79.2035 3.44336C71.5339 3.44336 65.3094 9.66791 65.3094 17.3374C65.3094 24.0622 70.089 29.6615 76.4247 30.9536V21.5057H73.6458V17.3374H76.4247V13.8639C76.4247 11.1824 78.606 9.00099 81.2876 9.00099H84.7611V13.1692H81.9823C81.2181 13.1692 80.5929 13.7945 80.5929 14.5586V17.3374H84.7611V21.5057H80.5929V31.1621C87.6094 30.4674 93.0975 24.5485 93.0975 17.3374Z" fill="#E4E9DE"/>
<path d="M145.295 15.2455L155.187 3.66309H152.843L144.255 13.7196L137.393 3.66309H129.48L139.855 18.8719L129.48 31.0171H131.825L140.895 20.3959L148.142 31.0171H156.055L145.295 15.2455ZM142.085 19.0048L141.034 17.4905L132.669 5.44109H136.27L143.019 15.1654L144.07 16.6797L152.845 29.3211H149.244L142.085 19.0048Z" fill="#E4E9DE"/>
<path d="M210.845 23.0434L213.179 20.7092C213.494 20.3987 213.892 20.1861 214.324 20.0973C214.757 20.0086 215.207 20.0473 215.618 20.209L218.463 21.3448C218.878 21.5135 219.235 21.8014 219.487 22.1723C219.739 22.5432 219.876 22.9804 219.88 23.4289V28.6392C219.877 28.9443 219.813 29.2458 219.691 29.5254C219.569 29.8051 219.392 30.0571 219.17 30.2664C218.948 30.4758 218.686 30.638 218.4 30.7434C218.113 30.8488 217.809 30.8951 217.504 30.8796C197.569 29.6396 193.547 12.7583 192.786 6.29753C192.751 5.98026 192.783 5.65911 192.881 5.35521C192.979 5.05131 193.14 4.77154 193.353 4.53431C193.567 4.29707 193.828 4.10776 194.12 3.97881C194.412 3.84987 194.728 3.78422 195.048 3.78618H200.081C200.53 3.7875 200.968 3.92317 201.34 4.17573C201.711 4.42828 201.999 4.78617 202.165 5.20337L203.301 8.04818C203.468 8.45778 203.51 8.90751 203.423 9.34118C203.336 9.77485 203.123 10.1732 202.811 10.4866L200.477 12.8208C200.477 12.8208 201.821 21.9179 210.845 23.0434Z" fill="#E4E9DE"/>
<defs>
<clipPath id="clip0_125_345">
<rect width="31.2617" height="31.2617" fill="white" transform="translate(0 1.70801)"/>
</clipPath>
</defs>
</svg>
