<svg width="70" height="70" viewBox="0 0 70 70" fill="none" xmlns="http://www.w3.org/2000/svg">
<g id="tdesign:undertake-transaction" clip-path="url(#clip0_117_64)">
<path id="Vector" d="M42.2917 8.74994C40.3578 8.74994 38.5031 9.51817 37.1357 10.8856C35.7682 12.2531 35 14.1077 35 16.0416C35 17.9755 35.7682 19.8301 37.1357 21.1976C38.5031 22.565 40.3578 23.3333 42.2917 23.3333C44.2255 23.3333 46.0802 22.565 47.4477 21.1976C48.8151 19.8301 49.5833 17.9755 49.5833 16.0416C49.5833 14.1077 48.8151 12.2531 47.4477 10.8856C46.0802 9.51817 44.2255 8.74994 42.2917 8.74994ZM29.1667 16.0416C29.1662 13.8076 29.736 11.6104 30.8221 9.65819C31.9082 7.70595 33.4747 6.06324 35.3731 4.88563C37.2715 3.70801 39.4391 3.03446 41.6707 2.92876C43.9022 2.82306 46.1238 3.28871 48.125 4.28161C50.1261 3.28989 52.3471 2.82519 54.5779 2.93148C56.8087 3.03777 58.9754 3.71153 60.8731 4.88901C62.7708 6.06648 64.3367 7.70872 65.4225 9.66031C66.5083 11.6119 67.0782 13.8083 67.0782 16.0416C67.0782 18.2749 66.5083 20.4713 65.4225 22.4229C64.3367 24.3745 62.7708 26.0167 60.8731 27.1942C58.9754 28.3717 56.8087 29.0454 54.5779 29.1517C52.3471 29.258 50.1261 28.7933 48.125 27.8016C46.1238 28.7945 43.9022 29.2601 41.6707 29.1544C39.4391 29.0487 37.2715 28.3752 35.3731 27.1976C33.4747 26.02 31.9082 24.3773 30.8221 22.425C29.736 20.4728 29.1662 18.2756 29.1667 16.0416ZM53.2292 23.2983C54.243 23.4 55.267 23.2882 56.235 22.9699C57.203 22.6516 58.0935 22.134 58.8492 21.4504C59.6048 20.7668 60.2088 19.9324 60.6222 19.0011C61.0355 18.0697 61.2491 17.062 61.2491 16.0431C61.2491 15.0241 61.0355 14.0164 60.6222 13.0851C60.2088 12.1537 59.6048 11.3193 58.8492 10.6357C58.0935 9.95213 57.203 9.4345 56.235 9.11623C55.267 8.79795 54.243 8.68609 53.2292 8.78786C54.6587 10.9367 55.4199 13.4607 55.4167 16.0416C55.4204 18.6235 54.6593 21.1486 53.2292 23.2983ZM24.6021 38.6458C24.1232 38.6445 23.6487 38.7377 23.2058 38.9198C22.7629 39.102 22.3603 39.3696 22.0208 39.7074L16.0417 45.6866V56.8749H32.4538L49.3792 52.6458L59.6808 48.2474C60.0317 48.0578 60.3002 47.7453 60.4349 47.3699C60.5695 46.9944 60.5609 46.5825 60.4105 46.2131C60.2601 45.8437 59.9786 45.5428 59.6201 45.3681C59.2615 45.1934 58.8511 45.1573 58.4675 45.2666L58.4092 45.2812L39.7075 49.5833H29.1667V43.7499H38.2812C38.9581 43.7499 39.6072 43.4811 40.0858 43.0024C40.5645 42.5238 40.8333 41.8747 40.8333 41.1979C40.8333 40.521 40.5645 39.8719 40.0858 39.3933C39.6072 38.9147 38.9581 38.6458 38.2812 38.6458H24.6108H24.6021ZM46.6288 42.0058L56.9888 39.6229C58.0922 39.3327 59.2474 39.2993 60.3657 39.5252C61.484 39.751 62.5357 40.2302 63.44 40.9258C64.3443 41.6214 65.0772 42.515 65.5824 43.538C66.0875 44.561 66.3516 45.6861 66.3542 46.827C66.354 48.2122 65.9681 49.5699 65.2396 50.7481C64.5112 51.9262 63.4691 52.8783 62.23 53.4974L62.1513 53.5383L51.2429 58.1904L33.1713 62.7083H0V41.5624H11.9175L17.9025 35.5774C18.7843 34.6986 19.8306 34.0021 20.9816 33.5277C22.1327 33.0533 23.3659 32.8102 24.6108 32.8124H38.2812C39.4507 32.8123 40.6072 33.0567 41.6765 33.5301C42.7458 34.0034 43.7043 34.6952 44.4904 35.5609C45.2765 36.4267 45.8729 37.4473 46.2411 38.5572C46.6094 39.6671 46.7414 40.8418 46.6288 42.0058ZM10.2083 47.3958H5.83333V56.8749H10.2083V47.3958Z" fill="#2C3838"/>
</g>
<defs>
<clipPath id="clip0_117_64">
<rect width="70" height="70" fill="white"/>
</clipPath>
</defs>
</svg>
