<svg width="70" height="70" viewBox="0 0 70 70" fill="none" xmlns="http://www.w3.org/2000/svg">
<g id="fluent:person-star-32-filled">
<path id="Vector" d="M32.8125 35C36.8736 35 40.7684 33.3867 43.64 30.5151C46.5117 27.6434 48.125 23.7486 48.125 19.6875C48.125 15.6264 46.5117 11.7316 43.64 8.85993C40.7684 5.98828 36.8736 4.375 32.8125 4.375C28.7513 4.375 24.8565 5.98828 21.9849 8.85993C19.1132 11.7316 17.5 15.6264 17.5 19.6875C17.5 23.7486 19.1132 27.6434 21.9849 30.5151C24.8565 33.3867 28.7513 35 32.8125 35ZM14.2187 39.375C12.1882 39.375 10.2408 40.1816 8.80493 41.6175C7.36911 43.0533 6.56247 45.0007 6.56247 47.0312V48.125C6.56247 53.3597 9.89403 57.7872 14.6234 60.7972C19.379 63.8247 25.8168 65.625 32.8125 65.625C34.4429 65.6235 36.0361 65.5288 37.5922 65.3406C35.4065 63.4942 33.6505 61.1927 32.4471 58.5969C31.2436 56.0011 30.6218 53.1737 30.625 50.3125C30.625 46.2656 31.8456 42.5031 33.9412 39.375H14.2187ZM66.7187 50.3125C66.7187 54.6637 64.9902 58.8367 61.9134 61.9135C58.8367 64.9902 54.6637 66.7188 50.3125 66.7188C45.9613 66.7188 41.7883 64.9902 38.7115 61.9135C35.6347 58.8367 33.9062 54.6637 33.9062 50.3125C33.9062 45.9613 35.6347 41.7883 38.7115 38.7115C41.7883 35.6348 45.9613 33.9062 50.3125 33.9062C54.6637 33.9062 58.8367 35.6348 61.9134 38.7115C64.9902 41.7883 66.7187 45.9613 66.7187 50.3125ZM48.755 39.6769L46.6987 45.8631H40.1493C38.5503 45.8631 37.8962 47.915 39.2 48.8403L44.4631 52.5744L42.4309 58.6819C41.9322 60.1847 43.645 61.4534 44.9378 60.5369L50.3125 56.7241L55.6872 60.5369C56.98 61.4556 58.6928 60.1869 58.194 58.6819L56.1597 52.5744L61.425 48.8403C62.7309 47.915 62.0746 45.8631 60.4756 45.8631H53.9262L51.87 39.6769C51.3712 38.1806 49.2537 38.1806 48.755 39.6769Z" fill="#2C3838"/>
</g>
</svg>
